<?xml version="1.0" encoding="UTF-8" standalone="no"?>
<svg width="101px" height="44px" viewBox="0 0 101 44" version="1.1" xmlns="http://www.w3.org/2000/svg" xmlns:xlink="http://www.w3.org/1999/xlink">
    <!-- Generator: Sketch 48.2 (47327) - http://www.bohemiancoding.com/sketch -->
    <title>Group 2</title>
    <desc>Created with Sketch.</desc>
    <defs>
        <path d="M6.83105202,8.94032432 C1.69646243,13.376 -0.71616185,19.3996396 0.426473988,24.9238198 C1.51093642,30.162991 5.22971098,34.869009 10.9629364,38.2633514 C15.6451098,41.0361441 21.376763,42.8904865 27.7848786,43.7042883 C29.7289711,43.9512432 39.6184509,43.8687928 41.3101965,43.5932973 C47.2965549,42.6138018 51.7578266,41.2026306 55.9089711,38.9717117 C66.380578,33.3492252 70.5509827,23.8365045 66.294104,15.2830631 C65.3405318,13.3696577 64.3889249,12.0401441 62.751815,10.3435676 C58.2724624,5.69383784 51.1859191,2.33596396 42.8348902,0.899423423 C39.9246474,0.399171171 36.9758844,0.156972973 34.0562081,0.156972973 C23.4961618,0.156972973 13.3244624,3.32854054 6.83105202,8.94032432 Z M27.6630289,40.4657297 C15.2854566,38.8412973 5.73047399,32.7447207 3.54661272,25.0875315 C3.30645087,24.2380541 3.26517919,23.8067748 3.26517919,22.1086126 C3.26517919,19.7682883 3.45620809,18.9124685 4.43415029,16.8888649 C7.01657803,11.5486126 13.6959075,6.96547748 21.9620347,4.86457658 C32.849896,2.09772973 44.6787514,3.1569009 53.7270751,7.70990991 C59.5141503,10.6234234 63.4090173,14.7772613 64.6086474,19.317982 C64.8370173,20.1738018 64.890474,20.7006126 64.890474,22.1086126 C64.890474,23.5181982 64.8370173,24.0461982 64.6086474,24.902018 C62.4750983,32.9778018 51.9413873,39.4041802 38.7776879,40.657982 C37.3709133,40.7923604 35.8069133,40.8581622 34.2169711,40.8581622 C31.9564624,40.8581622 29.6444624,40.724973 27.6630289,40.4657297 Z M28.2184277,4.91452252 C25.3062197,5.26295495 24.0012486,5.46036036 23.862104,5.57254054 C23.6349133,5.75963964 23.6400231,12.2827387 23.8687861,12.4714234 C23.9580116,12.5459459 24.5279538,12.6224505 25.1340578,12.6430631 L26.2413179,12.6787387 L26.2413179,22.0471712 L26.2413179,31.4148108 L25.5605318,31.4481081 C25.1886936,31.4643604 24.7559306,31.505982 24.603815,31.5436396 L24.3263121,31.6062703 L24.3263121,35.0006126 C24.3263121,37.8082883 24.3569711,38.4207207 24.5051561,38.5436036 C24.7523931,38.7505225 26.4417803,39.0228468 28.2777803,39.1524685 C29.1295491,39.2123243 30.7132023,39.2531532 31.7984509,39.248 L33.7755607,39.2317477 L33.8089711,35.7731892 C33.8278382,33.4982703 33.7983584,32.2603243 33.7122775,32.1576577 C33.6411329,32.072036 33.3357225,31.9388468 33.0299191,31.8611532 L32.4784509,31.7216216 L32.479237,26.1078559 C32.479237,23.0219099 32.5315145,20.4163964 32.5936185,20.3224505 C32.720185,20.1175135 32.8424277,20.504 34.7739422,27.1963604 C35.5042543,29.721009 36.1752139,31.8722523 36.2699422,31.9729369 C36.4059422,32.1231712 36.800578,32.160036 38.2564855,32.160036 L40.0724393,32.160036 L41.9516763,26.0912072 C42.9870058,22.7531532 43.8898728,19.9652973 43.9610173,19.891964 C44.0510289,19.8027748 44.0891561,21.4486126 44.0891561,25.2341982 L44.0891561,30.7048649 L43.2558613,30.9946306 L42.4237457,31.2915315 L42.3891561,34.9419459 C42.3714682,36.9512793 42.4025202,38.6395315 42.4555838,38.6942342 C42.5711445,38.8095856 46.1763237,37.9894414 47.7210636,37.4947387 C48.3149827,37.3052613 49.4788439,36.8073874 50.3058497,36.391964 L51.8108902,35.6352432 L51.8517688,34.144 C51.8706358,33.3254414 51.852948,31.9146667 51.8046012,31.0100901 L51.7240231,29.367027 L51.3348902,29.3698018 C51.1194913,29.3721802 50.7024509,29.4308468 50.4033295,29.4986306 C50.1069595,29.5664144 49.8400694,29.5993153 49.8109827,29.5711712 C49.7807168,29.5422342 49.7626358,26.1221261 49.7693179,21.9722523 C49.7767861,16.1753514 49.8141272,14.4030631 49.9289017,14.3309189 C50.0141965,14.277009 50.4013642,14.2334054 50.7904971,14.2314234 L51.5015491,14.2314234 L51.5015491,11.2667748 L51.5015491,8.3049009 L50.6702197,7.86886486 C49.5849711,7.30082883 47.5536185,6.65351351 45.3874451,6.18655856 C43.1898266,5.71127928 41.2657803,5.38742342 41.0731792,5.46154955 C40.991815,5.49326126 40.8601387,5.81830631 40.7827052,6.1818018 C40.7080231,6.54767568 40.4505665,7.76936937 40.2107977,8.89315315 C39.9737803,10.0201081 39.4942428,12.3092973 39.1479538,13.9809009 C38.803237,15.6548829 38.4663815,17.1477117 38.4046705,17.3007207 C38.320948,17.5020901 38.1880925,17.5797838 37.9212023,17.5797838 C37.5984971,17.5797838 37.5352139,17.5227027 37.4231908,17.0985586 C37.3520462,16.8353514 36.6850173,14.1406486 35.9397688,11.1145586 C34.277896,4.37423423 34.3741965,4.70681081 34.1076994,4.62277477 C34.0664277,4.60969369 33.926104,4.60374775 33.7138497,4.60374775 C32.5775029,4.60374775 29.3807168,4.77499099 28.2184277,4.91452252 Z M18.3348439,8.96569369 C16.5625202,8.97362162 15.7123237,9.17459459 14.1349595,9.95311712 C11.9727168,11.022991 9.63791908,13.1250811 7.61482081,15.8237477 L6.66164162,17.094991 L6.66164162,18.5121081 C6.66164162,20.1163243 6.70330636,20.1864865 7.6419422,20.1864865 L8.14545665,20.1864865 L8.14545665,22.7293694 L8.14545665,25.273045 L7.70326012,25.273045 C6.87271676,25.273045 6.78427746,25.3983063 6.78427746,26.5914595 C6.78427746,27.938018 6.93993064,28.2745586 8.1427052,29.5394595 C9.18393064,30.6354955 10.3922081,31.6221261 12.7659191,33.3052252 L12.7659191,33.306018 C13.6542428,33.9362883 14.4647399,34.4393153 14.5673295,34.4214775 C14.7638613,34.3881802 14.8633064,33.4098739 14.9493873,30.5716757 L14.9926243,29.2318559 L14.1538266,28.4612613 L13.315422,27.6926486 L13.3551214,26.5145586 L13.3928555,25.3396396 L16.1230751,25.3384505 L18.8513295,25.3340901 L19.7011329,24.902018 C20.3363237,24.576973 20.6963699,24.2820541 21.1381734,23.7310631 C21.9738266,22.6889369 22.6797688,21.1901622 22.8652948,20.0608288 C23.0948439,18.6682883 23.0606474,13.9051892 22.8130173,12.7861622 C22.4490405,11.1442883 21.5422428,9.81675676 20.3976416,9.24753153 C19.917711,9.01009009 19.6783353,8.9652973 18.582474,8.9652973 C18.5042543,8.9652973 18.421711,8.9652973 18.3348439,8.96569369 Z M12.9302197,20.4893333 C12.8791214,20.4342342 12.8374566,19.3964685 12.8374566,18.1771532 L12.8374566,15.9616937 L13.1786358,15.8300901 C13.8987283,15.554991 15.516185,15.4194234 16.3188208,15.5704505 C17.4359075,15.7785586 17.6756763,16.0611892 17.7503584,17.2614775 C17.8556994,18.8843243 17.3926705,19.6418378 15.9599538,20.1900541 C15.4226358,20.3953874 14.1443931,20.5622703 13.4274451,20.5622703 C13.1656647,20.5622703 12.9789595,20.5400721 12.9302197,20.4893333 Z M52.8611561,12.1681802 C52.8611561,13.4949189 52.8953526,14.6714234 52.9362312,14.780036 C52.977896,14.889045 53.367422,15.1768288 53.7993988,15.4194234 L54.591422,15.8633874 L54.5874913,21.2206847 C54.5847399,27.2122162 54.6126474,26.9934054 53.6692948,28.1223423 C53.2679769,28.6007928 53.2160925,28.733982 53.280948,29.1141261 C53.3175029,29.3567207 53.3509133,30.6561081 53.3520925,32.0054414 C53.3540578,33.7099459 53.3965087,34.4543784 53.491237,34.4543784 C53.6869827,34.4543784 56.5932948,32.4335495 57.6298035,31.5793153 C58.4465896,30.9018739 59.3659653,29.8863063 60.625341,28.2654414 L61.144578,27.5994955 L61.1095954,25.8458378 L61.0769711,24.0937658 L60.5188208,24.0307387 L59.963422,23.9696937 L59.963422,21.5492973 L59.963422,19.1324685 L60.7660578,19.0682523 L61.5690867,19.0056216 L61.6032832,17.754991 L61.638659,16.5003964 L60.0829133,14.9901261 C57.3574104,12.3437838 55.0969017,10.4965766 53.831237,9.88136937 C53.5474451,9.74342342 53.3465896,9.64590991 53.2046936,9.64590991 C52.8611561,9.64590991 52.8611561,10.2167207 52.8611561,12.1681802 Z" id="path-1"></path>
    </defs>
    <g id="Desktop-Poly-Med-3D-PRINTING-NEW-HOME-PAGE-OPT-3" stroke="none" stroke-width="1" fill="none" fill-rule="evenodd" transform="translate(-20.000000, -18.000000)">
        <g id="Group-2" transform="translate(20.000000, 18.000000)">
            <g id="Group-5-Copy">
                <mask id="mask-2" fill="white">
                    <use xlink:href="#path-1"></use>
                </mask>
                <g id="Clip-4"></g>
                <polygon id="Fill-3" fill="#ffffff" mask="url(#mask-2)" points="-7.07514451 51.1351351 75.1651561 51.1351351 75.1651561 -7.12641441 -7.07514451 -7.12641441"></polygon>
            </g>
            <g id="Group-96-Copy" transform="translate(68.000000, 9.000000)" fill="#ffffff">
                <path d="M23.0756494,21.2011325 L28.2893421,21.2011325 L28.2893421,4.7992633 L23.0756494,4.7992633 L23.0756494,21.2011325 Z M29.9460549,0 L33,2.74729824 L33,23.2693233 L29.9460549,26 L17,26 L17,21.2011325 L18.3482884,21.2011325 L18.3482884,4.7992633 L17,4.7992633 L17,0 L29.9460549,0 Z" id="Fill-9"></path>
                <polygon id="Fill-12" points="15 23.2865133 11.8278869 26 3.15744438 26 0 23.2865133 0 19.0987264 4.94947437 19.0987264 4.94947437 21.2017083 10.0358569 21.2017083 10.0358569 15.4084319 4.60883384 15.4084319 4.60883384 10.5915681 10.0358569 10.5915681 10.0358569 4.79947719 4.94947437 4.79947719 4.94947437 6.9004833 0 6.9004833 0 2.73087328 3.19044903 0 11.8278869 0 15 2.73087328 15 10.7227575 13.1069188 13.0063224 15 15.2748716"></polygon>
            </g>
        </g>
    </g>
</svg>